<svg version="1.1" id="Layer_1" xmlns="http://www.w3.org/2000/svg" xmlns:xlink="http://www.w3.org/1999/xlink" x="0px" y="0px"
	 width="100%" viewBox="0 0 435 380" enable-background="new 0 0 435 380" xml:space="preserve">
<path fill="transparent" opacity="1.000000" stroke="none" 
	d="
M224.000000,381.000000 
	C149.333328,381.000000 75.166664,381.000000 1.000000,381.000000 
	C1.000000,254.333328 1.000000,127.666664 1.000000,1.000000 
	C146.000000,1.000000 291.000000,1.000000 436.000000,1.000000 
	C436.000000,127.666664 436.000000,254.333328 436.000000,381.000000 
	C365.500000,381.000000 295.000000,381.000000 224.000000,381.000000 
M194.657303,276.128723 
	C201.828354,271.011261 208.779907,265.547302 216.210831,260.840088 
	C240.289078,245.587341 259.116333,226.007080 269.789612,199.068985 
	C279.838531,173.706680 280.614075,148.590668 268.736877,123.730354 
	C254.079941,93.051720 239.111832,62.521358 224.168991,31.980347 
	C222.907440,29.401920 220.820740,27.227209 218.114883,23.474649 
	C215.273010,28.635044 212.952682,32.504280 210.955627,36.533741 
	C201.822357,54.962036 192.775040,73.432968 183.707260,91.893700 
	C180.984512,97.436829 181.705139,102.776482 184.466263,108.129448 
	C188.109085,115.191742 192.143478,122.131851 194.964645,129.523315 
	C203.619385,152.198776 201.841629,175.194733 196.138977,198.225677 
	C189.910202,223.381424 178.678146,246.471375 166.949585,269.346405 
	C157.151123,288.457092 148.030304,307.777130 145.337799,329.420013 
	C144.232162,338.307343 143.916306,347.179138 146.894699,356.193085 
	C148.721069,353.721191 150.256500,351.123444 150.927246,348.318909 
	C157.742432,319.823242 171.779190,295.722168 194.657303,276.128723 
M196.365570,169.102768 
	C197.140274,147.150742 192.782272,126.667809 178.648254,107.615181 
	C176.446457,110.273170 174.155350,112.182800 172.945114,114.627510 
	C152.646347,155.631134 132.397949,196.660583 112.442093,237.831497 
	C110.765121,241.291245 110.546844,245.857285 110.862206,249.812759 
	C112.075294,265.028076 114.733765,280.182495 115.079147,295.399872 
	C115.589249,317.874786 119.456741,339.018066 133.143997,357.431000 
	C134.658173,359.467987 137.323227,360.649475 140.102585,362.707611 
	C140.653412,360.464294 140.915375,359.852692 140.936081,359.233093 
	C141.019409,356.738739 141.196960,354.231079 141.037994,351.747681 
	C139.666168,330.316833 144.590851,310.083679 153.370834,290.802551 
	C161.956604,271.947876 171.546692,253.551895 180.210876,234.731262 
	C189.649460,214.228439 196.089005,192.864655 196.365570,169.102768 
M236.210861,250.723221 
	C226.737808,257.457336 217.482712,264.526337 207.749512,270.860687 
	C181.948654,287.651917 165.356705,311.132538 156.480118,340.302155 
	C155.742126,342.727264 156.506271,345.609436 156.572479,348.279266 
	C157.124664,348.298615 157.676849,348.317963 158.229034,348.337311 
	C159.690048,346.161133 161.227814,344.032135 162.600540,341.801636 
	C182.259003,309.859100 211.478241,293.774384 248.192856,289.898010 
	C265.226654,288.099548 282.258331,286.201538 299.223083,283.857300 
	C310.150970,282.347198 320.420929,278.413574 329.849152,272.628326 
	C336.105438,268.789459 337.305542,264.459015 334.522552,257.771301 
	C333.890228,256.251770 333.163788,254.769440 332.436768,253.291595 
	C319.690979,227.382935 306.925751,201.483810 294.198761,175.565903 
	C291.930328,170.946289 289.989807,166.155579 287.519165,161.651596 
	C286.799133,160.338943 284.767365,159.745834 283.336884,158.822922 
	C282.527130,160.156357 281.599182,161.436020 280.957672,162.845993 
	C280.638855,163.546722 280.856781,164.487228 280.813324,165.318298 
	C278.984131,200.300140 263.413330,228.156403 236.210861,250.723221 
M273.147552,337.336517 
	C276.443726,344.219635 280.121033,350.950775 282.940826,358.023804 
	C286.565125,367.114868 292.720184,370.839325 302.520111,370.640808 
	C325.170074,370.182068 347.833344,370.376556 370.491241,370.319366 
	C373.818909,370.310974 377.168823,370.632629 380.469788,370.350067 
	C386.755066,369.812073 387.812561,367.983887 385.086945,362.335938 
	C371.319916,333.808167 357.500336,305.305634 343.635101,276.825470 
	C341.458374,272.354370 338.823486,271.997925 334.289246,274.279358 
	C326.771729,278.061859 319.266907,282.017029 311.394012,284.913483 
	C297.306702,290.096283 282.323029,289.809875 267.588684,291.018219 
	C262.959595,291.397827 258.427368,292.958862 252.309753,294.322693 
	C259.628876,309.334930 266.279907,322.976929 273.147552,337.336517 
M78.499985,369.074371 
	C97.189163,369.074371 115.878342,369.074371 135.144592,369.074371 
	C133.369904,366.088959 132.130112,363.762604 130.668884,361.584869 
	C122.167648,348.914948 115.139236,335.501099 113.535088,320.147003 
	C112.311584,308.436188 112.317886,296.588928 111.973175,284.796631 
	C111.675423,274.610931 110.150246,264.842743 103.859795,255.598206 
	C85.256081,293.624084 66.954384,331.032623 48.342903,369.074371 
	C58.616692,369.074371 68.058327,369.074371 78.499985,369.074371 
z"/>
<path fill="#ffffff" opacity="1.000000" stroke="none" 
	d="
M194.393448,276.367859 
	C171.779190,295.722168 157.742432,319.823242 150.927246,348.318909 
	C150.256500,351.123444 148.721069,353.721191 146.894699,356.193085 
	C143.916306,347.179138 144.232162,338.307343 145.337799,329.420013 
	C148.030304,307.777130 157.151123,288.457092 166.949585,269.346405 
	C178.678146,246.471375 189.910202,223.381424 196.138977,198.225677 
	C201.841629,175.194733 203.619385,152.198776 194.964645,129.523315 
	C192.143478,122.131851 188.109085,115.191742 184.466263,108.129448 
	C181.705139,102.776482 180.984512,97.436829 183.707260,91.893700 
	C192.775040,73.432968 201.822357,54.962036 210.955627,36.533741 
	C212.952682,32.504280 215.273010,28.635044 218.114883,23.474649 
	C220.820740,27.227209 222.907440,29.401920 224.168991,31.980347 
	C239.111832,62.521358 254.079941,93.051720 268.736877,123.730354 
	C280.614075,148.590668 279.838531,173.706680 269.789612,199.068985 
	C259.116333,226.007080 240.289078,245.587341 216.210831,260.840088 
	C208.779907,265.547302 201.828354,271.011261 194.393448,276.367859 
z"/>
<path fill="#ffffff" opacity="1.000000" stroke="none" 
	d="
M196.335938,169.557800 
	C196.089005,192.864655 189.649460,214.228439 180.210876,234.731262 
	C171.546692,253.551895 161.956604,271.947876 153.370834,290.802551 
	C144.590851,310.083679 139.666168,330.316833 141.037994,351.747681 
	C141.196960,354.231079 141.019409,356.738739 140.936081,359.233093 
	C140.915375,359.852692 140.653412,360.464294 140.102585,362.707611 
	C137.323227,360.649475 134.658173,359.467987 133.143997,357.431000 
	C119.456741,339.018066 115.589249,317.874786 115.079147,295.399872 
	C114.733765,280.182495 112.075294,265.028076 110.862206,249.812759 
	C110.546844,245.857285 110.765121,241.291245 112.442093,237.831497 
	C132.397949,196.660583 152.646347,155.631134 172.945114,114.627510 
	C174.155350,112.182800 176.446457,110.273170 178.648254,107.615181 
	C192.782272,126.667809 197.140274,147.150742 196.335938,169.557800 
z"/>
<path fill="#ffffff" opacity="1.000000" stroke="none" 
	d="
M236.485657,250.494232 
	C263.413330,228.156403 278.984131,200.300140 280.813324,165.318298 
	C280.856781,164.487228 280.638855,163.546722 280.957672,162.845993 
	C281.599182,161.436020 282.527130,160.156357 283.336884,158.822906 
	C284.767365,159.745834 286.799133,160.338943 287.519165,161.651596 
	C289.989807,166.155579 291.930328,170.946289 294.198761,175.565903 
	C306.925751,201.483810 319.690979,227.382935 332.436768,253.291595 
	C333.163788,254.769440 333.890228,256.251770 334.522552,257.771301 
	C337.305542,264.459015 336.105438,268.789459 329.849152,272.628326 
	C320.420929,278.413574 310.150970,282.347198 299.223083,283.857300 
	C282.258331,286.201538 265.226654,288.099548 248.192856,289.898010 
	C211.478241,293.774384 182.259003,309.859100 162.600540,341.801636 
	C161.227814,344.032135 159.690048,346.161133 158.229034,348.337311 
	C157.676849,348.317963 157.124664,348.298615 156.572479,348.279266 
	C156.506271,345.609436 155.742126,342.727264 156.480118,340.302155 
	C165.356705,311.132538 181.948654,287.651917 207.749512,270.860687 
	C217.482712,264.526337 226.737808,257.457336 236.485657,250.494232 
z"/>
<path fill="#ffffff" opacity="1.000000" stroke="none" 
	d="
M273.039246,336.977722 
	C266.279907,322.976929 259.628876,309.334930 252.309753,294.322693 
	C258.427368,292.958862 262.959595,291.397827 267.588684,291.018219 
	C282.323029,289.809875 297.306702,290.096283 311.394012,284.913483 
	C319.266907,282.017029 326.771729,278.061859 334.289246,274.279358 
	C338.823486,271.997925 341.458374,272.354370 343.635101,276.825470 
	C357.500336,305.305634 371.319916,333.808167 385.086945,362.335938 
	C387.812561,367.983887 386.755066,369.812073 380.469788,370.350067 
	C377.168823,370.632629 373.818909,370.310974 370.491241,370.319366 
	C347.833344,370.376556 325.170074,370.182068 302.520111,370.640808 
	C292.720184,370.839325 286.565125,367.114868 282.940826,358.023804 
	C280.121033,350.950775 276.443726,344.219635 273.039246,336.977722 
z"/>
<path fill="#ffffff" opacity="1.000000" stroke="none" 
	d="
M77.999977,369.074371 
	C68.058327,369.074371 58.616692,369.074371 48.342903,369.074371 
	C66.954384,331.032623 85.256081,293.624084 103.859795,255.598206 
	C110.150246,264.842743 111.675423,274.610931 111.973175,284.796631 
	C112.317886,296.588928 112.311584,308.436188 113.535088,320.147003 
	C115.139236,335.501099 122.167648,348.914948 130.668884,361.584869 
	C132.130112,363.762604 133.369904,366.088959 135.144592,369.074371 
	C115.878342,369.074371 97.189163,369.074371 77.999977,369.074371 
z"/>
</svg>